<svg width="293" height="21" viewBox="0 0 293 21" fill="none" xmlns="http://www.w3.org/2000/svg">
<path d="M0.264205 16V1.45455H6.08807C7.15814 1.45455 8.05066 1.61316 8.76562 1.9304C9.48059 2.24763 10.018 2.68797 10.3778 3.25142C10.7377 3.81013 10.9176 4.45407 10.9176 5.18324C10.9176 5.75142 10.804 6.25095 10.5767 6.68182C10.3494 7.10795 10.0369 7.45833 9.6392 7.73295C9.24621 8.00284 8.7964 8.1946 8.28977 8.30824V8.45028C8.84375 8.47396 9.36222 8.63021 9.84517 8.91903C10.3329 9.20786 10.7282 9.61269 11.0312 10.1335C11.3343 10.6496 11.4858 11.2652 11.4858 11.9801C11.4858 12.7519 11.294 13.4408 10.9105 14.0469C10.5317 14.6482 9.97064 15.1241 9.22727 15.4744C8.4839 15.8248 7.56771 16 6.47869 16H0.264205ZM3.33949 13.4858H5.84659C6.7036 13.4858 7.3286 13.3224 7.72159 12.9957C8.11458 12.6643 8.31108 12.224 8.31108 11.6747C8.31108 11.2723 8.21402 10.9171 8.01989 10.6094C7.82576 10.3016 7.54877 10.0601 7.18892 9.88494C6.83381 9.70975 6.41004 9.62216 5.91761 9.62216H3.33949V13.4858ZM3.33949 7.54119H5.61932C6.04072 7.54119 6.41477 7.4678 6.74148 7.32102C7.07292 7.16951 7.33333 6.95644 7.52273 6.68182C7.71686 6.4072 7.81392 6.07812 7.81392 5.6946C7.81392 5.16903 7.62689 4.74527 7.25284 4.4233C6.88352 4.10133 6.35795 3.94034 5.67614 3.94034H3.33949V7.54119ZM13.43 16V5.09091H16.4556V16H13.43ZM14.9499 3.68466C14.5001 3.68466 14.1142 3.53551 13.7923 3.23722C13.475 2.93419 13.3164 2.57197 13.3164 2.15057C13.3164 1.7339 13.475 1.37642 13.7923 1.07812C14.1142 0.775094 14.5001 0.623579 14.9499 0.623579C15.3997 0.623579 15.7833 0.775094 16.1005 1.07812C16.4225 1.37642 16.5835 1.7339 16.5835 2.15057C16.5835 2.57197 16.4225 2.93419 16.1005 3.23722C15.7833 3.53551 15.3997 3.68466 14.9499 3.68466ZM23.8082 16.2131C22.705 16.2131 21.7509 15.9787 20.946 15.5099C20.1458 15.0365 19.5279 14.3783 19.0923 13.5355C18.6567 12.688 18.4389 11.7055 18.4389 10.5881C18.4389 9.46117 18.6567 8.47633 19.0923 7.63352C19.5279 6.78598 20.1458 6.12784 20.946 5.65909C21.7509 5.18561 22.705 4.94886 23.8082 4.94886C24.9115 4.94886 25.8632 5.18561 26.6634 5.65909C27.4683 6.12784 28.0885 6.78598 28.5241 7.63352C28.9598 8.47633 29.1776 9.46117 29.1776 10.5881C29.1776 11.7055 28.9598 12.688 28.5241 13.5355C28.0885 14.3783 27.4683 15.0365 26.6634 15.5099C25.8632 15.9787 24.9115 16.2131 23.8082 16.2131ZM23.8224 13.8693C24.3243 13.8693 24.7434 13.7273 25.0795 13.4432C25.4157 13.1544 25.669 12.7614 25.8395 12.2642C26.0147 11.767 26.1023 11.2012 26.1023 10.5668C26.1023 9.93229 26.0147 9.36648 25.8395 8.86932C25.669 8.37216 25.4157 7.97917 25.0795 7.69034C24.7434 7.40151 24.3243 7.2571 23.8224 7.2571C23.3158 7.2571 22.8897 7.40151 22.544 7.69034C22.2031 7.97917 21.9451 8.37216 21.7699 8.86932C21.5994 9.36648 21.5142 9.93229 21.5142 10.5668C21.5142 11.2012 21.5994 11.767 21.7699 12.2642C21.9451 12.7614 22.2031 13.1544 22.544 13.4432C22.8897 13.7273 23.3158 13.8693 23.8224 13.8693ZM35.1648 16.1776C34.3362 16.1776 33.5857 15.9645 32.9134 15.5384C32.2457 15.1075 31.7154 14.4754 31.3224 13.642C30.9342 12.804 30.7401 11.7765 30.7401 10.5597C30.7401 9.30966 30.9413 8.27036 31.3438 7.44176C31.7462 6.60843 32.2813 5.9858 32.9489 5.57386C33.6212 5.1572 34.3575 4.94886 35.1577 4.94886C35.7685 4.94886 36.2775 5.05303 36.6847 5.26136C37.0966 5.46496 37.428 5.72064 37.679 6.02841C37.9347 6.33144 38.1288 6.62973 38.2614 6.9233H38.3537V1.45455H41.3722V16H38.3892V14.2528H38.2614C38.1193 14.5559 37.9181 14.8565 37.6577 15.1548C37.402 15.4484 37.0682 15.6922 36.6562 15.8864C36.2491 16.0805 35.7519 16.1776 35.1648 16.1776ZM36.1236 13.7699C36.6113 13.7699 37.0232 13.6373 37.3594 13.3722C37.7003 13.1023 37.9607 12.7259 38.1406 12.2429C38.3253 11.7599 38.4176 11.1941 38.4176 10.5455C38.4176 9.89678 38.3277 9.33333 38.1477 8.85511C37.9678 8.37689 37.7074 8.00758 37.3665 7.74716C37.0256 7.48674 36.6113 7.35653 36.1236 7.35653C35.6264 7.35653 35.2074 7.49148 34.8665 7.76136C34.5256 8.03125 34.2675 8.4053 34.0923 8.88352C33.9171 9.36174 33.8295 9.91572 33.8295 10.5455C33.8295 11.1799 33.9171 11.741 34.0923 12.2287C34.2723 12.7116 34.5303 13.0904 34.8665 13.3651C35.2074 13.6349 35.6264 13.7699 36.1236 13.7699ZM48.8313 16.2131C47.7092 16.2131 46.7433 15.9858 45.9336 15.5312C45.1287 15.072 44.5084 14.4233 44.0728 13.5852C43.6372 12.7424 43.4194 11.7457 43.4194 10.5952C43.4194 9.47301 43.6372 8.48816 44.0728 7.64062C44.5084 6.79309 45.1216 6.13258 45.9123 5.65909C46.7077 5.18561 47.6405 4.94886 48.7106 4.94886C49.4303 4.94886 50.1003 5.06487 50.7205 5.29688C51.3455 5.52415 51.89 5.86742 52.354 6.3267C52.8228 6.78598 53.1874 7.36364 53.4478 8.05966C53.7082 8.75095 53.8384 9.56061 53.8384 10.4886V11.3196H44.6268V9.4446H50.9904C50.9904 9.009 50.8957 8.62311 50.7063 8.28693C50.5169 7.95076 50.2541 7.68797 49.918 7.49858C49.5865 7.30445 49.2006 7.20739 48.7603 7.20739C48.301 7.20739 47.8938 7.31392 47.5387 7.52699C47.1883 7.73532 46.9137 8.01705 46.7148 8.37216C46.516 8.72254 46.4142 9.11316 46.4094 9.54403V11.3267C46.4094 11.8665 46.5089 12.3329 46.7077 12.7259C46.9113 13.1188 47.1978 13.4219 47.5671 13.6349C47.9364 13.848 48.3744 13.9545 48.881 13.9545C49.2172 13.9545 49.525 13.9072 49.8043 13.8125C50.0837 13.7178 50.3228 13.5758 50.5217 13.3864C50.7205 13.197 50.872 12.965 50.9762 12.6903L53.7745 12.875C53.6325 13.5473 53.3413 14.1345 52.9009 14.6364C52.4653 15.1335 51.9019 15.5218 51.2106 15.8011C50.524 16.0758 49.7309 16.2131 48.8313 16.2131ZM60.7276 20.3182C59.7475 20.3182 58.9071 20.1832 58.2063 19.9134C57.5103 19.6482 56.9563 19.286 56.5444 18.8267C56.1325 18.3674 55.8649 17.8513 55.7418 17.2784L58.5401 16.902C58.6254 17.1198 58.7603 17.3234 58.945 17.5128C59.1296 17.7022 59.3735 17.8537 59.6765 17.9673C59.9843 18.0857 60.3583 18.1449 60.7987 18.1449C61.4568 18.1449 61.9989 17.9839 62.4251 17.6619C62.8559 17.3447 63.0714 16.812 63.0714 16.0639V14.0682H62.9435C62.811 14.3712 62.6121 14.6577 62.3469 14.9276C62.0818 15.1974 61.7409 15.4176 61.3242 15.5881C60.9076 15.7585 60.4104 15.8438 59.8327 15.8438C59.0136 15.8438 58.2679 15.6544 57.5955 15.2756C56.9279 14.892 56.3952 14.3073 55.9975 13.5213C55.6045 12.7306 55.408 11.7315 55.408 10.5241C55.408 9.28835 55.6093 8.25616 56.0117 7.42756C56.4142 6.59896 56.9492 5.97869 57.6168 5.56676C58.2892 5.15483 59.0254 4.94886 59.8256 4.94886C60.4364 4.94886 60.9478 5.05303 61.3597 5.26136C61.7717 5.46496 62.1031 5.72064 62.354 6.02841C62.6097 6.33144 62.8062 6.62973 62.9435 6.9233H63.0572V5.09091H66.0614V16.1065C66.0614 17.0346 65.8342 17.8111 65.3796 18.4361C64.9251 19.0611 64.2953 19.5298 63.4904 19.8423C62.6902 20.1596 61.7693 20.3182 60.7276 20.3182ZM60.7915 13.571C61.2792 13.571 61.6912 13.4503 62.0273 13.2088C62.3683 12.9626 62.6287 12.6122 62.8086 12.1577C62.9933 11.6984 63.0856 11.1491 63.0856 10.5099C63.0856 9.87074 62.9956 9.31676 62.8157 8.84801C62.6358 8.37453 62.3754 8.00758 62.0344 7.74716C61.6935 7.48674 61.2792 7.35653 60.7915 7.35653C60.2944 7.35653 59.8754 7.49148 59.5344 7.76136C59.1935 8.02651 58.9355 8.39583 58.7603 8.86932C58.5851 9.3428 58.4975 9.88968 58.4975 10.5099C58.4975 11.1397 58.5851 11.6842 58.7603 12.1435C58.9402 12.598 59.1983 12.9508 59.5344 13.2017C59.8754 13.4479 60.2944 13.571 60.7915 13.571ZM68.4691 16V5.09091H71.4023V6.99432H71.516C71.7148 6.31723 72.0487 5.80587 72.5174 5.46023C72.9862 5.10985 73.5259 4.93466 74.1367 4.93466C74.2882 4.93466 74.4516 4.94413 74.6268 4.96307C74.802 4.98201 74.9558 5.00805 75.0884 5.04119V7.72585C74.9464 7.68324 74.7499 7.64536 74.4989 7.61222C74.248 7.57907 74.0183 7.5625 73.81 7.5625C73.3649 7.5625 72.9672 7.65956 72.6168 7.85369C72.2712 8.04309 71.9966 8.30824 71.793 8.64915C71.5941 8.99006 71.4947 9.38305 71.4947 9.82812V16H68.4691ZM79.451 16.206C78.755 16.206 78.1347 16.0852 77.5902 15.8438C77.0457 15.5975 76.6148 15.2353 76.2976 14.7571C75.9851 14.2741 75.8288 13.6728 75.8288 12.9531C75.8288 12.3471 75.9401 11.8381 76.1626 11.4261C76.3852 11.0142 76.6882 10.6828 77.0717 10.4318C77.4553 10.1809 77.8909 9.99148 78.3786 9.86364C78.871 9.7358 79.3871 9.64583 79.9268 9.59375C80.5613 9.52746 81.0727 9.46591 81.4609 9.40909C81.8492 9.34754 82.1309 9.25758 82.3061 9.1392C82.4813 9.02083 82.5689 8.84564 82.5689 8.61364V8.57102C82.5689 8.12121 82.4268 7.7732 82.1428 7.52699C81.8634 7.28078 81.4657 7.15767 80.9496 7.15767C80.4051 7.15767 79.9718 7.27841 79.6499 7.51989C79.3279 7.75663 79.1148 8.05492 79.0107 8.41477L76.2124 8.1875C76.3544 7.52462 76.6338 6.9517 77.0504 6.46875C77.4671 5.98106 78.0045 5.60701 78.6626 5.34659C79.3255 5.08144 80.0926 4.94886 80.9638 4.94886C81.5698 4.94886 82.1499 5.01989 82.7038 5.16193C83.2625 5.30398 83.7573 5.52415 84.1882 5.82244C84.6238 6.12074 84.9671 6.50426 85.218 6.97301C85.469 7.43703 85.5945 7.99337 85.5945 8.64205V16H82.7251V14.4872H82.6399C82.4647 14.8281 82.2304 15.1288 81.9368 15.3892C81.6432 15.6449 81.2905 15.8461 80.8786 15.9929C80.4666 16.1349 79.9908 16.206 79.451 16.206ZM80.3175 14.1179C80.7625 14.1179 81.1555 14.0303 81.4964 13.8551C81.8374 13.6752 82.1049 13.4337 82.299 13.1307C82.4931 12.8277 82.5902 12.4844 82.5902 12.1009V10.9432C82.4955 11.0047 82.3653 11.0616 82.1996 11.1136C82.0386 11.161 81.8563 11.206 81.6527 11.2486C81.4491 11.2865 81.2455 11.322 81.0419 11.3551C80.8383 11.3835 80.6536 11.4096 80.4879 11.4332C80.1328 11.4853 79.8227 11.5682 79.5575 11.6818C79.2924 11.7955 79.0864 11.9493 78.9396 12.1435C78.7929 12.3329 78.7195 12.5696 78.7195 12.8537C78.7195 13.2656 78.8686 13.5805 79.1669 13.7983C79.4699 14.0114 79.8535 14.1179 80.3175 14.1179ZM91.9616 16.1776C91.133 16.1776 90.3826 15.9645 89.7102 15.5384C89.0426 15.1075 88.5123 14.4754 88.1193 13.642C87.7311 12.804 87.5369 11.7765 87.5369 10.5597C87.5369 9.30966 87.7382 8.27036 88.1406 7.44176C88.5431 6.60843 89.0781 5.9858 89.7457 5.57386C90.4181 5.1572 91.1544 4.94886 91.9545 4.94886C92.5653 4.94886 93.0743 5.05303 93.4815 5.26136C93.8935 5.46496 94.2249 5.72064 94.4759 6.02841C94.7315 6.33144 94.9257 6.62973 95.0582 6.9233H95.1506V1.45455H98.169V16H95.1861V14.2528H95.0582C94.9162 14.5559 94.715 14.8565 94.4545 15.1548C94.1989 15.4484 93.8651 15.6922 93.4531 15.8864C93.0459 16.0805 92.5488 16.1776 91.9616 16.1776ZM92.9205 13.7699C93.4081 13.7699 93.8201 13.6373 94.1562 13.3722C94.4972 13.1023 94.7576 12.7259 94.9375 12.2429C95.1222 11.7599 95.2145 11.1941 95.2145 10.5455C95.2145 9.89678 95.1245 9.33333 94.9446 8.85511C94.7647 8.37689 94.5043 8.00758 94.1634 7.74716C93.8224 7.48674 93.4081 7.35653 92.9205 7.35653C92.4233 7.35653 92.0043 7.49148 91.6634 7.76136C91.3224 8.03125 91.0644 8.4053 90.8892 8.88352C90.714 9.36174 90.6264 9.91572 90.6264 10.5455C90.6264 11.1799 90.714 11.741 90.8892 12.2287C91.0691 12.7116 91.3272 13.0904 91.6634 13.3651C92.0043 13.6349 92.4233 13.7699 92.9205 13.7699ZM103.767 16.206C103.071 16.206 102.451 16.0852 101.907 15.8438C101.362 15.5975 100.931 15.2353 100.614 14.7571C100.301 14.2741 100.145 13.6728 100.145 12.9531C100.145 12.3471 100.257 11.8381 100.479 11.4261C100.702 11.0142 101.005 10.6828 101.388 10.4318C101.772 10.1809 102.207 9.99148 102.695 9.86364C103.187 9.7358 103.703 9.64583 104.243 9.59375C104.878 9.52746 105.389 9.46591 105.777 9.40909C106.166 9.34754 106.447 9.25758 106.623 9.1392C106.798 9.02083 106.885 8.84564 106.885 8.61364V8.57102C106.885 8.12121 106.743 7.7732 106.459 7.52699C106.18 7.28078 105.782 7.15767 105.266 7.15767C104.721 7.15767 104.288 7.27841 103.966 7.51989C103.644 7.75663 103.431 8.05492 103.327 8.41477L100.529 8.1875C100.671 7.52462 100.95 6.9517 101.367 6.46875C101.783 5.98106 102.321 5.60701 102.979 5.34659C103.642 5.08144 104.409 4.94886 105.28 4.94886C105.886 4.94886 106.466 5.01989 107.02 5.16193C107.579 5.30398 108.074 5.52415 108.505 5.82244C108.94 6.12074 109.283 6.50426 109.534 6.97301C109.785 7.43703 109.911 7.99337 109.911 8.64205V16H107.042V14.4872H106.956C106.781 14.8281 106.547 15.1288 106.253 15.3892C105.96 15.6449 105.607 15.8461 105.195 15.9929C104.783 16.1349 104.307 16.206 103.767 16.206ZM104.634 14.1179C105.079 14.1179 105.472 14.0303 105.813 13.8551C106.154 13.6752 106.421 13.4337 106.615 13.1307C106.81 12.8277 106.907 12.4844 106.907 12.1009V10.9432C106.812 11.0047 106.682 11.0616 106.516 11.1136C106.355 11.161 106.173 11.206 105.969 11.2486C105.766 11.2865 105.562 11.322 105.358 11.3551C105.155 11.3835 104.97 11.4096 104.804 11.4332C104.449 11.4853 104.139 11.5682 103.874 11.6818C103.609 11.7955 103.403 11.9493 103.256 12.1435C103.109 12.3329 103.036 12.5696 103.036 12.8537C103.036 13.2656 103.185 13.5805 103.483 13.7983C103.786 14.0114 104.17 14.1179 104.634 14.1179ZM112.315 16V1.45455H115.341V6.9233H115.433C115.565 6.62973 115.757 6.33144 116.008 6.02841C116.264 5.72064 116.595 5.46496 117.002 5.26136C117.414 5.05303 117.926 4.94886 118.537 4.94886C119.332 4.94886 120.066 5.1572 120.738 5.57386C121.411 5.9858 121.948 6.60843 122.35 7.44176C122.753 8.27036 122.954 9.30966 122.954 10.5597C122.954 11.7765 122.758 12.804 122.365 13.642C121.976 14.4754 121.446 15.1075 120.774 15.5384C120.106 15.9645 119.358 16.1776 118.529 16.1776C117.942 16.1776 117.443 16.0805 117.031 15.8864C116.624 15.6922 116.29 15.4484 116.029 15.1548C115.769 14.8565 115.57 14.5559 115.433 14.2528H115.298V16H112.315ZM115.277 10.5455C115.277 11.1941 115.367 11.7599 115.547 12.2429C115.726 12.7259 115.987 13.1023 116.328 13.3722C116.669 13.6373 117.083 13.7699 117.571 13.7699C118.063 13.7699 118.48 13.6349 118.821 13.3651C119.162 13.0904 119.42 12.7116 119.595 12.2287C119.775 11.741 119.865 11.1799 119.865 10.5455C119.865 9.91572 119.777 9.36174 119.602 8.88352C119.427 8.4053 119.169 8.03125 118.828 7.76136C118.487 7.49148 118.068 7.35653 117.571 7.35653C117.078 7.35653 116.662 7.48674 116.321 7.74716C115.984 8.00758 115.726 8.37689 115.547 8.85511C115.367 9.33333 115.277 9.89678 115.277 10.5455ZM127.999 1.45455V16H124.973V1.45455H127.999ZM135.394 16.2131C134.272 16.2131 133.306 15.9858 132.496 15.5312C131.691 15.072 131.071 14.4233 130.635 13.5852C130.2 12.7424 129.982 11.7457 129.982 10.5952C129.982 9.47301 130.2 8.48816 130.635 7.64062C131.071 6.79309 131.684 6.13258 132.475 5.65909C133.27 5.18561 134.203 4.94886 135.273 4.94886C135.993 4.94886 136.663 5.06487 137.283 5.29688C137.908 5.52415 138.453 5.86742 138.917 6.3267C139.385 6.78598 139.75 7.36364 140.01 8.05966C140.271 8.75095 140.401 9.56061 140.401 10.4886V11.3196H131.189V9.4446H137.553C137.553 9.009 137.458 8.62311 137.269 8.28693C137.079 7.95076 136.817 7.68797 136.48 7.49858C136.149 7.30445 135.763 7.20739 135.323 7.20739C134.864 7.20739 134.456 7.31392 134.101 7.52699C133.751 7.73532 133.476 8.01705 133.277 8.37216C133.078 8.72254 132.977 9.11316 132.972 9.54403V11.3267C132.972 11.8665 133.071 12.3329 133.27 12.7259C133.474 13.1188 133.76 13.4219 134.13 13.6349C134.499 13.848 134.937 13.9545 135.444 13.9545C135.78 13.9545 136.087 13.9072 136.367 13.8125C136.646 13.7178 136.885 13.5758 137.084 13.3864C137.283 13.197 137.435 12.965 137.539 12.6903L140.337 12.875C140.195 13.5473 139.904 14.1345 139.463 14.6364C139.028 15.1335 138.464 15.5218 137.773 15.8011C137.087 16.0758 136.293 16.2131 135.394 16.2131ZM150.335 16L146.173 1.45455H149.533L151.94 11.5611H152.061L154.717 1.45455H157.594L160.243 11.5824H160.371L162.778 1.45455H166.138L161.976 16H158.979L156.209 6.49006H156.095L153.332 16H150.335ZM169.666 16.206C168.97 16.206 168.35 16.0852 167.805 15.8438C167.261 15.5975 166.83 15.2353 166.512 14.7571C166.2 14.2741 166.044 13.6728 166.044 12.9531C166.044 12.3471 166.155 11.8381 166.377 11.4261C166.6 11.0142 166.903 10.6828 167.287 10.4318C167.67 10.1809 168.106 9.99148 168.593 9.86364C169.086 9.7358 169.602 9.64583 170.142 9.59375C170.776 9.52746 171.288 9.46591 171.676 9.40909C172.064 9.34754 172.346 9.25758 172.521 9.1392C172.696 9.02083 172.784 8.84564 172.784 8.61364V8.57102C172.784 8.12121 172.642 7.7732 172.358 7.52699C172.078 7.28078 171.681 7.15767 171.164 7.15767C170.62 7.15767 170.187 7.27841 169.865 7.51989C169.543 7.75663 169.33 8.05492 169.225 8.41477L166.427 8.1875C166.569 7.52462 166.849 6.9517 167.265 6.46875C167.682 5.98106 168.219 5.60701 168.877 5.34659C169.54 5.08144 170.307 4.94886 171.179 4.94886C171.785 4.94886 172.365 5.01989 172.919 5.16193C173.477 5.30398 173.972 5.52415 174.403 5.82244C174.839 6.12074 175.182 6.50426 175.433 6.97301C175.684 7.43703 175.809 7.99337 175.809 8.64205V16H172.94V14.4872H172.855C172.68 14.8281 172.445 15.1288 172.152 15.3892C171.858 15.6449 171.505 15.8461 171.093 15.9929C170.681 16.1349 170.206 16.206 169.666 16.206ZM170.532 14.1179C170.977 14.1179 171.37 14.0303 171.711 13.8551C172.052 13.6752 172.32 13.4337 172.514 13.1307C172.708 12.8277 172.805 12.4844 172.805 12.1009V10.9432C172.71 11.0047 172.58 11.0616 172.414 11.1136C172.253 11.161 172.071 11.206 171.868 11.2486C171.664 11.2865 171.46 11.322 171.257 11.3551C171.053 11.3835 170.868 11.4096 170.703 11.4332C170.348 11.4853 170.038 11.5682 169.772 11.6818C169.507 11.7955 169.301 11.9493 169.154 12.1435C169.008 12.3329 168.934 12.5696 168.934 12.8537C168.934 13.2656 169.083 13.5805 169.382 13.7983C169.685 14.0114 170.068 14.1179 170.532 14.1179ZM187.233 8.2017L184.463 8.37216C184.416 8.13542 184.314 7.92235 184.158 7.73295C184.002 7.53883 183.796 7.38494 183.54 7.27131C183.289 7.15294 182.989 7.09375 182.638 7.09375C182.169 7.09375 181.774 7.19318 181.452 7.39205C181.13 7.58617 180.969 7.84659 180.969 8.1733C180.969 8.43371 181.073 8.65388 181.282 8.83381C181.49 9.01373 181.847 9.15814 182.354 9.26705L184.328 9.66477C185.389 9.88258 186.18 10.233 186.701 10.7159C187.221 11.1989 187.482 11.8333 187.482 12.6193C187.482 13.3343 187.271 13.9616 186.85 14.5014C186.433 15.0412 185.86 15.4626 185.131 15.7656C184.407 16.0639 183.571 16.2131 182.624 16.2131C181.18 16.2131 180.029 15.9124 179.172 15.3111C178.32 14.705 177.82 13.8812 177.674 12.8395L180.65 12.6832C180.739 13.1236 180.957 13.4598 181.303 13.6918C181.649 13.919 182.091 14.0327 182.631 14.0327C183.161 14.0327 183.587 13.9309 183.909 13.7273C184.236 13.5189 184.402 13.2514 184.407 12.9247C184.402 12.6501 184.286 12.4252 184.059 12.25C183.831 12.0701 183.481 11.9328 183.007 11.8381L181.118 11.4616C180.053 11.2486 179.26 10.8793 178.739 10.3537C178.223 9.82812 177.965 9.15814 177.965 8.34375C177.965 7.64299 178.154 7.0393 178.533 6.53267C178.917 6.02604 179.454 5.63542 180.145 5.3608C180.841 5.08617 181.656 4.94886 182.588 4.94886C183.966 4.94886 185.051 5.24006 185.841 5.82244C186.637 6.40483 187.101 7.19792 187.233 8.2017ZM195.19 5.09091V7.36364H188.62V5.09091H195.19ZM190.112 2.47727H193.137V12.6477C193.137 12.9271 193.18 13.1449 193.265 13.3011C193.35 13.4527 193.469 13.5592 193.62 13.6207C193.776 13.6823 193.956 13.7131 194.16 13.7131C194.302 13.7131 194.444 13.7012 194.586 13.6776C194.728 13.6491 194.837 13.6278 194.913 13.6136L195.388 15.8651C195.237 15.9124 195.024 15.9669 194.749 16.0284C194.475 16.0947 194.141 16.1349 193.748 16.1491C193.019 16.1776 192.379 16.0805 191.83 15.858C191.286 15.6354 190.862 15.2898 190.559 14.821C190.256 14.3523 190.107 13.7604 190.112 13.0455V2.47727ZM202.015 16.2131C200.893 16.2131 199.927 15.9858 199.117 15.5312C198.312 15.072 197.692 14.4233 197.256 13.5852C196.821 12.7424 196.603 11.7457 196.603 10.5952C196.603 9.47301 196.821 8.48816 197.256 7.64062C197.692 6.79309 198.305 6.13258 199.096 5.65909C199.891 5.18561 200.824 4.94886 201.894 4.94886C202.614 4.94886 203.284 5.06487 203.904 5.29688C204.529 5.52415 205.074 5.86742 205.538 6.3267C206.006 6.78598 206.371 7.36364 206.631 8.05966C206.892 8.75095 207.022 9.56061 207.022 10.4886V11.3196H197.81V9.4446H204.174C204.174 9.009 204.079 8.62311 203.89 8.28693C203.701 7.95076 203.438 7.68797 203.102 7.49858C202.77 7.30445 202.384 7.20739 201.944 7.20739C201.485 7.20739 201.077 7.31392 200.722 7.52699C200.372 7.73532 200.097 8.01705 199.898 8.37216C199.7 8.72254 199.598 9.11316 199.593 9.54403V11.3267C199.593 11.8665 199.692 12.3329 199.891 12.7259C200.095 13.1188 200.381 13.4219 200.751 13.6349C201.12 13.848 201.558 13.9545 202.065 13.9545C202.401 13.9545 202.709 13.9072 202.988 13.8125C203.267 13.7178 203.506 13.5758 203.705 13.3864C203.904 13.197 204.056 12.965 204.16 12.6903L206.958 12.875C206.816 13.5473 206.525 14.1345 206.085 14.6364C205.649 15.1335 205.085 15.5218 204.394 15.8011C203.708 16.0758 202.915 16.2131 202.015 16.2131ZM221.573 5.63778C221.516 5.06487 221.272 4.61979 220.841 4.30256C220.41 3.98532 219.826 3.8267 219.087 3.8267C218.585 3.8267 218.161 3.89773 217.816 4.03977C217.47 4.17708 217.205 4.36884 217.02 4.61506C216.84 4.86127 216.75 5.14062 216.75 5.45312C216.741 5.71354 216.795 5.94081 216.914 6.13494C217.037 6.32907 217.205 6.49716 217.418 6.6392C217.631 6.77651 217.877 6.89725 218.157 7.00142C218.436 7.10085 218.734 7.18608 219.051 7.2571L220.358 7.5696C220.993 7.71165 221.575 7.90104 222.105 8.13778C222.636 8.37453 223.095 8.66572 223.483 9.01136C223.872 9.35701 224.172 9.7642 224.385 10.233C224.603 10.7017 224.714 11.2391 224.719 11.8452C224.714 12.7353 224.487 13.5071 224.037 14.1605C223.592 14.8092 222.948 15.3134 222.105 15.6733C221.267 16.0284 220.257 16.206 219.073 16.206C217.899 16.206 216.876 16.026 216.005 15.6662C215.138 15.3063 214.461 14.7737 213.973 14.0682C213.49 13.358 213.237 12.4796 213.213 11.4332H216.189C216.222 11.9209 216.362 12.3281 216.608 12.6548C216.859 12.9768 217.193 13.2206 217.61 13.3864C218.031 13.5473 218.507 13.6278 219.037 13.6278C219.558 13.6278 220.01 13.5521 220.394 13.4006C220.782 13.2491 221.083 13.0384 221.296 12.7685C221.509 12.4986 221.615 12.1884 221.615 11.8381C221.615 11.5114 221.518 11.2367 221.324 11.0142C221.135 10.7917 220.855 10.6023 220.486 10.446C220.122 10.2898 219.674 10.1477 219.144 10.0199L217.56 9.62216C216.334 9.32386 215.365 8.85748 214.655 8.22301C213.945 7.58854 213.592 6.7339 213.597 5.65909C213.592 4.77841 213.827 4.009 214.3 3.35085C214.778 2.69271 215.434 2.17898 216.267 1.80966C217.101 1.44034 218.048 1.25568 219.108 1.25568C220.188 1.25568 221.13 1.44034 221.935 1.80966C222.745 2.17898 223.374 2.69271 223.824 3.35085C224.274 4.009 224.506 4.77131 224.52 5.63778H221.573ZM231.66 16.2131C230.557 16.2131 229.603 15.9787 228.798 15.5099C227.997 15.0365 227.379 14.3783 226.944 13.5355C226.508 12.688 226.29 11.7055 226.29 10.5881C226.29 9.46117 226.508 8.47633 226.944 7.63352C227.379 6.78598 227.997 6.12784 228.798 5.65909C229.603 5.18561 230.557 4.94886 231.66 4.94886C232.763 4.94886 233.715 5.18561 234.515 5.65909C235.32 6.12784 235.94 6.78598 236.376 7.63352C236.811 8.47633 237.029 9.46117 237.029 10.5881C237.029 11.7055 236.811 12.688 236.376 13.5355C235.94 14.3783 235.32 15.0365 234.515 15.5099C233.715 15.9787 232.763 16.2131 231.66 16.2131ZM231.674 13.8693C232.176 13.8693 232.595 13.7273 232.931 13.4432C233.267 13.1544 233.521 12.7614 233.691 12.2642C233.866 11.767 233.954 11.2012 233.954 10.5668C233.954 9.93229 233.866 9.36648 233.691 8.86932C233.521 8.37216 233.267 7.97917 232.931 7.69034C232.595 7.40151 232.176 7.2571 231.674 7.2571C231.167 7.2571 230.741 7.40151 230.396 7.69034C230.055 7.97917 229.797 8.37216 229.621 8.86932C229.451 9.36648 229.366 9.93229 229.366 10.5668C229.366 11.2012 229.451 11.767 229.621 12.2642C229.797 12.7614 230.055 13.1544 230.396 13.4432C230.741 13.7273 231.167 13.8693 231.674 13.8693ZM242.022 1.45455V16H238.996V1.45455H242.022ZM251.441 11.3551V5.09091H254.467V16H251.562V14.0185H251.449C251.202 14.6577 250.793 15.1714 250.22 15.5597C249.652 15.9479 248.958 16.142 248.139 16.142C247.41 16.142 246.768 15.9763 246.214 15.6449C245.66 15.3134 245.227 14.8423 244.914 14.2315C244.607 13.6207 244.45 12.8892 244.446 12.0369V5.09091H247.471V11.4972C247.476 12.1411 247.649 12.6501 247.99 13.0241C248.331 13.3982 248.788 13.5852 249.36 13.5852C249.725 13.5852 250.066 13.5024 250.383 13.3366C250.7 13.1662 250.956 12.9152 251.15 12.5838C251.349 12.2524 251.446 11.8428 251.441 11.3551ZM262.69 5.09091V7.36364H256.12V5.09091H262.69ZM257.612 2.47727H260.637V12.6477C260.637 12.9271 260.68 13.1449 260.765 13.3011C260.85 13.4527 260.969 13.5592 261.12 13.6207C261.276 13.6823 261.456 13.7131 261.66 13.7131C261.802 13.7131 261.944 13.7012 262.086 13.6776C262.228 13.6491 262.337 13.6278 262.413 13.6136L262.888 15.8651C262.737 15.9124 262.524 15.9669 262.249 16.0284C261.975 16.0947 261.641 16.1349 261.248 16.1491C260.519 16.1776 259.879 16.0805 259.33 15.858C258.786 15.6354 258.362 15.2898 258.059 14.821C257.756 14.3523 257.607 13.7604 257.612 13.0455V2.47727ZM264.661 16V5.09091H267.686V16H264.661ZM266.18 3.68466C265.731 3.68466 265.345 3.53551 265.023 3.23722C264.705 2.93419 264.547 2.57197 264.547 2.15057C264.547 1.7339 264.705 1.37642 265.023 1.07812C265.345 0.775094 265.731 0.623579 266.18 0.623579C266.63 0.623579 267.014 0.775094 267.331 1.07812C267.653 1.37642 267.814 1.7339 267.814 2.15057C267.814 2.57197 267.653 2.93419 267.331 3.23722C267.014 3.53551 266.63 3.68466 266.18 3.68466ZM275.039 16.2131C273.935 16.2131 272.981 15.9787 272.176 15.5099C271.376 15.0365 270.758 14.3783 270.323 13.5355C269.887 12.688 269.669 11.7055 269.669 10.5881C269.669 9.46117 269.887 8.47633 270.323 7.63352C270.758 6.78598 271.376 6.12784 272.176 5.65909C272.981 5.18561 273.935 4.94886 275.039 4.94886C276.142 4.94886 277.094 5.18561 277.894 5.65909C278.699 6.12784 279.319 6.78598 279.755 7.63352C280.19 8.47633 280.408 9.46117 280.408 10.5881C280.408 11.7055 280.19 12.688 279.755 13.5355C279.319 14.3783 278.699 15.0365 277.894 15.5099C277.094 15.9787 276.142 16.2131 275.039 16.2131ZM275.053 13.8693C275.555 13.8693 275.974 13.7273 276.31 13.4432C276.646 13.1544 276.9 12.7614 277.07 12.2642C277.245 11.767 277.333 11.2012 277.333 10.5668C277.333 9.93229 277.245 9.36648 277.07 8.86932C276.9 8.37216 276.646 7.97917 276.31 7.69034C275.974 7.40151 275.555 7.2571 275.053 7.2571C274.546 7.2571 274.12 7.40151 273.775 7.69034C273.434 7.97917 273.176 8.37216 273 8.86932C272.83 9.36648 272.745 9.93229 272.745 10.5668C272.745 11.2012 272.83 11.767 273 12.2642C273.176 12.7614 273.434 13.1544 273.775 13.4432C274.12 13.7273 274.546 13.8693 275.053 13.8693ZM285.401 9.69318V16H282.375V5.09091H285.259V7.01562H285.387C285.628 6.38116 286.033 5.87926 286.601 5.50994C287.169 5.13589 287.858 4.94886 288.668 4.94886C289.426 4.94886 290.086 5.11458 290.65 5.44602C291.213 5.77746 291.651 6.25095 291.963 6.86648C292.276 7.47727 292.432 8.20644 292.432 9.05398V16H289.407V9.59375C289.411 8.92614 289.241 8.4053 288.895 8.03125C288.55 7.65246 288.074 7.46307 287.468 7.46307C287.06 7.46307 286.701 7.55066 286.388 7.72585C286.08 7.90104 285.839 8.15672 285.664 8.4929C285.493 8.82434 285.406 9.22443 285.401 9.69318Z" fill="black"/>
</svg>
